<svg width="83" height="16" viewBox="0 0 83 16" fill="white" xmlns="http://www.w3.org/2000/svg">
<path d="M3.924 12C3.876 12.024 3.752 12.056 3.552 12.096C3.36 12.144 3.18 12.168 3.012 12.168C2.852 12.168 2.76 12.108 2.736 11.988C2.592 11.492 2.376 10.524 2.088 9.084C1.8 7.636 1.508 6.324 1.212 5.148C0.924 3.972 0.644 3.192 0.372 2.808C0.708 2.6 0.988 2.496 1.212 2.496C1.628 2.496 1.916 2.732 2.076 3.204C2.244 3.676 2.516 4.964 2.892 7.068C2.916 7.26 3.032 7.864 3.24 8.88C3.456 9.888 3.588 10.524 3.636 10.788C4.164 9.62 4.752 8.064 5.4 6.12C6.048 4.168 6.372 2.9 6.372 2.316C7.156 2.46 7.548 2.756 7.548 3.204C7.548 3.532 7.32 4.228 6.864 5.292C6.416 6.348 5.872 7.568 5.232 8.952C4.6 10.328 4.164 11.344 3.924 12ZM10.3816 12.18C9.92559 12.02 9.60559 11.776 9.42159 11.448C9.24559 11.112 9.15759 10.708 9.15759 10.236C9.15759 9.764 9.22159 9.088 9.34959 8.208C9.47759 7.328 9.54159 6.644 9.54159 6.156C9.54159 5.668 9.51759 5.292 9.46959 5.028C9.61359 5.012 9.72959 5.004 9.81759 5.004C10.1776 5.004 10.4376 5.084 10.5976 5.244C10.7576 5.404 10.8376 5.668 10.8376 6.036C10.8376 6.156 10.7376 6.788 10.5376 7.932C10.3456 9.068 10.2456 10.008 10.2376 10.752C10.2376 11.488 10.2856 11.964 10.3816 12.18ZM10.5616 3.816C9.88959 3.816 9.55359 3.588 9.55359 3.132C9.55359 2.972 9.61359 2.748 9.73359 2.46C9.90959 2.428 10.0616 2.412 10.1896 2.412C10.8616 2.412 11.1976 2.64 11.1976 3.096C11.1976 3.256 11.1376 3.48 11.0176 3.768C10.8416 3.8 10.6896 3.816 10.5616 3.816ZM13.6971 9.576C13.6971 10.032 13.7851 10.404 13.9611 10.692C14.1371 10.98 14.4091 11.124 14.7771 11.124C15.1531 11.124 15.4931 10.96 15.7971 10.632C16.1091 10.296 16.3571 9.848 16.5411 9.288C16.7331 8.72 16.8971 8.12 17.0331 7.488C17.1771 6.848 17.2811 6.168 17.3451 5.448C17.4651 4.112 17.5251 3.052 17.5251 2.268C17.5251 1.484 17.4931 0.9 17.4291 0.516C18.2531 0.78 18.6651 1.608 18.6651 3C18.6651 3.568 18.5291 4.712 18.2571 6.432C17.9931 8.152 17.8611 9.408 17.8611 10.2C17.8611 10.992 17.8971 11.664 17.9691 12.216C17.5131 12.064 17.2011 11.792 17.0331 11.4C16.8651 11.008 16.7811 10.508 16.7811 9.9C16.5331 10.588 16.1651 11.132 15.6771 11.532C15.1891 11.932 14.6811 12.132 14.1531 12.132C13.6331 12.132 13.2091 11.932 12.8811 11.532C12.5611 11.124 12.4011 10.528 12.4011 9.744C12.4011 8.44 12.7411 7.368 13.4211 6.528C14.1091 5.688 14.9611 5.268 15.9771 5.268C16.2651 5.268 16.5731 5.312 16.9011 5.4C16.3571 5.488 15.8691 5.688 15.4371 6C15.0051 6.304 14.6691 6.664 14.4291 7.08C13.9411 7.928 13.6971 8.76 13.6971 9.576ZM21.8356 7.308C21.6036 7.708 21.4236 8.12 21.2956 8.544C21.1756 8.96 21.1156 9.36 21.1156 9.744C21.1156 10.128 21.1996 10.456 21.3676 10.728C21.5436 10.992 21.7916 11.124 22.1116 11.124C22.5596 11.124 22.9796 10.88 23.3716 10.392C23.7636 9.896 24.0636 9.3 24.2716 8.604C24.4876 7.9 24.5956 7.252 24.5956 6.66C24.5956 6.06 24.5716 5.568 24.5236 5.184C24.7156 5.168 24.8356 5.16 24.8836 5.16C25.5636 5.16 25.9036 5.508 25.9036 6.204C25.9036 6.356 25.8076 6.976 25.6156 8.064C25.4236 9.144 25.3276 10.012 25.3276 10.668C25.3276 11.316 25.4516 11.892 25.6996 12.396C25.1956 12.292 24.8276 12.072 24.5956 11.736C24.3716 11.392 24.2596 10.9 24.2596 10.26C24.2596 10.148 24.2756 9.932 24.3076 9.612C24.0916 10.372 23.7116 10.984 23.1676 11.448C22.6236 11.912 22.0876 12.144 21.5596 12.144C21.0396 12.144 20.6196 11.948 20.2996 11.556C19.9796 11.156 19.8196 10.608 19.8196 9.912C19.8196 9.208 19.9476 8.524 20.2036 7.86C20.4676 7.188 20.8596 6.608 21.3796 6.12C21.9076 5.632 22.4956 5.388 23.1436 5.388C23.4236 5.388 23.7316 5.444 24.0676 5.556C23.5956 5.676 23.1636 5.896 22.7716 6.216C22.3796 6.536 22.0676 6.9 21.8356 7.308ZM38.2497 6.6C38.2497 5.424 38.0697 4.568 37.7097 4.032C37.3497 3.496 36.8617 3.228 36.2457 3.228C35.6297 3.228 35.0617 3.472 34.5417 3.96C34.0217 4.448 33.6257 5.06 33.3537 5.796C33.0817 6.524 32.9457 7.272 32.9457 8.04C32.9457 9.072 33.1337 9.92 33.5097 10.584C33.8937 11.248 34.4657 11.58 35.2257 11.58C35.8417 11.58 36.3857 11.328 36.8577 10.824C37.3297 10.32 37.6777 9.696 37.9017 8.952C38.1337 8.208 38.2497 7.424 38.2497 6.6ZM38.0817 10.992C37.7377 11.384 37.3057 11.7 36.7857 11.94C36.2737 12.18 35.7097 12.3 35.0937 12.3C34.4857 12.3 33.9457 12.156 33.4737 11.868C33.0097 11.58 32.6417 11.196 32.3697 10.716C31.8177 9.74 31.5417 8.624 31.5417 7.368C31.5417 6.112 31.8497 4.996 32.4657 4.02C33.0817 3.036 33.8817 2.388 34.8657 2.076C35.0017 2.108 35.0777 2.172 35.0937 2.268C34.5337 2.612 34.0737 3.016 33.7137 3.48C33.3617 3.944 33.1177 4.572 32.9817 5.364C33.3177 4.428 33.8417 3.692 34.5537 3.156C35.2657 2.62 36.0097 2.352 36.7857 2.352C37.5697 2.352 38.2337 2.688 38.7777 3.36C39.3297 4.024 39.6057 4.988 39.6057 6.252C39.6057 7.484 39.3857 8.6 38.9457 9.6C38.7137 10.128 38.4257 10.592 38.0817 10.992ZM45.8788 12.36C45.3108 12.36 44.8268 12.1 44.4268 11.58C44.0348 11.06 43.6548 10.324 43.2868 9.372C42.4788 10.292 41.9028 11.336 41.5588 12.504C41.1188 12.016 40.8988 11.576 40.8988 11.184C40.8988 10.896 41.0708 10.552 41.4148 10.152C41.7588 9.752 42.2828 9.22 42.9868 8.556C42.9068 8.316 42.8348 8.116 42.7708 7.956C42.7068 7.796 42.6428 7.632 42.5788 7.464C42.5148 7.288 42.4668 7.164 42.4348 7.092C42.4028 7.02 42.3548 6.908 42.2908 6.756C42.2348 6.604 42.1868 6.492 42.1468 6.42C42.1068 6.34 42.0548 6.24 41.9908 6.12C41.9348 5.992 41.8828 5.888 41.8348 5.808C41.7468 5.648 41.6348 5.472 41.4988 5.28C41.6028 5.192 41.7388 5.12 41.9068 5.064C42.0748 5 42.2148 4.968 42.3268 4.968C42.7028 4.968 43.0228 5.256 43.2868 5.832C43.3988 6.088 43.6108 6.704 43.9228 7.68C45.1868 6.448 45.8788 5.508 45.9988 4.86C46.3108 5.252 46.4668 5.576 46.4668 5.832C46.4668 6.08 46.3948 6.316 46.2508 6.54C46.1068 6.756 45.9548 6.94 45.7948 7.092C45.6348 7.236 45.3748 7.46 45.0148 7.764C44.6548 8.06 44.3788 8.296 44.1868 8.472C44.8588 10.368 45.6188 11.628 46.4668 12.252C46.2508 12.324 46.0548 12.36 45.8788 12.36ZM49.4871 12.18C49.0311 12.02 48.7111 11.776 48.5271 11.448C48.3511 11.112 48.2631 10.708 48.2631 10.236C48.2631 9.764 48.3271 9.088 48.4551 8.208C48.5831 7.328 48.6471 6.644 48.6471 6.156C48.6471 5.668 48.6231 5.292 48.5751 5.028C48.7191 5.012 48.8351 5.004 48.9231 5.004C49.2831 5.004 49.5431 5.084 49.7031 5.244C49.8631 5.404 49.9431 5.668 49.9431 6.036C49.9431 6.156 49.8431 6.788 49.6431 7.932C49.4511 9.068 49.3511 10.008 49.3431 10.752C49.3431 11.488 49.3911 11.964 49.4871 12.18ZM49.6671 3.816C48.9951 3.816 48.6591 3.588 48.6591 3.132C48.6591 2.972 48.7191 2.748 48.8391 2.46C49.0151 2.428 49.1671 2.412 49.2951 2.412C49.9671 2.412 50.3031 2.64 50.3031 3.096C50.3031 3.256 50.2431 3.48 50.1231 3.768C49.9471 3.8 49.7951 3.816 49.6671 3.816ZM55.4425 5.196C55.7465 5.196 55.9145 5.312 55.9465 5.544C55.0665 5.728 54.3345 6.224 53.7505 7.032C53.1665 7.832 52.8745 8.64 52.8745 9.456C52.8745 9.904 52.9585 10.276 53.1265 10.572C53.3025 10.868 53.5745 11.016 53.9425 11.016C54.3185 11.016 54.6705 10.816 54.9985 10.416C55.5825 9.704 55.9785 8.584 56.1865 7.056C56.3145 6.072 56.4625 5.432 56.6305 5.136C56.8545 4.768 57.1305 4.524 57.4585 4.404C57.3465 5.252 57.2905 5.892 57.2905 6.324C57.2905 9.524 56.9625 11.928 56.3065 13.536C55.6505 15.144 54.5825 15.948 53.1025 15.948C52.5185 15.948 52.0585 15.804 51.7225 15.516C51.3945 15.236 51.2305 14.916 51.2305 14.556C51.2305 14.196 51.3265 13.888 51.5185 13.632C51.7185 13.376 51.9785 13.248 52.2985 13.248C52.4745 13.248 52.6585 13.288 52.8505 13.368C52.7225 13.456 52.6145 13.592 52.5265 13.776C52.4385 13.96 52.3945 14.164 52.3945 14.388C52.3945 14.62 52.4785 14.812 52.6465 14.964C52.8225 15.124 53.0625 15.204 53.3665 15.204C53.6705 15.204 53.9585 15.112 54.2305 14.928C54.5025 14.752 54.7625 14.472 55.0105 14.088C55.5385 13.256 55.8265 11.828 55.8745 9.804C55.6505 10.492 55.3025 11.044 54.8305 11.46C54.3665 11.876 53.8945 12.084 53.4145 12.084C52.7985 12.084 52.3305 11.852 52.0105 11.388C51.6985 10.916 51.5425 10.316 51.5425 9.588C51.5425 8.572 51.8785 7.604 52.5505 6.684C52.8705 6.244 53.2825 5.888 53.7865 5.616C54.2905 5.336 54.8425 5.196 55.4425 5.196ZM62.3202 5.7C61.8402 5.7 61.4322 5.976 61.0962 6.528C60.7682 7.08 60.5482 7.728 60.4362 8.472H60.7722C61.1962 8.472 61.5642 8.412 61.8762 8.292C62.1882 8.172 62.4282 8.016 62.5962 7.824C62.9162 7.456 63.0762 7.04 63.0762 6.576C63.0762 6.312 63.0122 6.1 62.8842 5.94C62.7642 5.78 62.5762 5.7 62.3202 5.7ZM64.0122 10.56C63.6442 11.16 63.2402 11.58 62.8002 11.82C62.3602 12.06 61.8482 12.18 61.2642 12.18C60.6882 12.18 60.1842 11.924 59.7522 11.412C59.3202 10.9 59.1042 10.18 59.1042 9.252C59.1042 8.196 59.3882 7.252 59.9562 6.42C60.2362 6.02 60.6002 5.696 61.0482 5.448C61.5042 5.2 62.0042 5.076 62.5482 5.076C63.7482 5.076 64.3482 5.656 64.3482 6.816C64.3482 7.512 64.0762 8.06 63.5322 8.46C62.9962 8.852 62.3722 9.048 61.6602 9.048C61.1882 9.048 60.7642 9.004 60.3882 8.916C60.3802 8.996 60.3762 9.12 60.3762 9.288C60.3762 10.704 60.7962 11.412 61.6362 11.412C62.4282 11.412 63.0722 11.02 63.5682 10.236C63.8642 10.276 64.0122 10.384 64.0122 10.56ZM64.4082 4.176C64.2162 4.264 63.9842 4.308 63.7122 4.308C63.4402 4.308 63.2242 4.2 63.0642 3.984C62.9122 3.768 62.7762 3.352 62.6562 2.736C62.2482 3.48 61.7162 4.068 61.0602 4.5C60.7562 4.26 60.6002 3.956 60.5922 3.588C61.1442 3.228 61.5122 2.96 61.6962 2.784C61.8882 2.608 62.0162 2.488 62.0802 2.424C62.1442 2.36 62.2442 2.244 62.3802 2.076C62.5242 1.9 62.6122 1.796 62.6442 1.764C63.1242 1.764 63.4002 2.008 63.4722 2.496C63.5042 2.704 63.5962 2.968 63.7482 3.288C63.9002 3.608 64.1202 3.904 64.4082 4.176ZM71.3441 6.78C71.3441 7.148 71.2641 7.8 71.1041 8.736C70.9521 9.664 70.8761 10.34 70.8761 10.764C70.8761 11.188 70.9281 11.496 71.0321 11.688C71.1361 11.872 71.3121 12.032 71.5601 12.168C71.4561 12.176 71.3081 12.18 71.1161 12.18C70.5721 12.18 70.1841 12.08 69.9521 11.88C69.7281 11.672 69.6161 11.304 69.6161 10.776C69.6161 10.48 69.6961 9.884 69.8561 8.988C70.0161 8.084 70.0961 7.42 70.0961 6.996C70.0961 6.468 69.9361 6.204 69.6161 6.204C69.1041 6.204 68.5721 6.656 68.0201 7.56C67.4761 8.464 67.2041 9.552 67.2041 10.824C67.2041 11.328 67.2281 11.72 67.2761 12C67.0681 12.016 66.9441 12.024 66.9041 12.024C66.2001 12.024 65.8481 11.68 65.8481 10.992C65.8481 10.832 65.9321 10.216 66.1001 9.144C66.2681 8.072 66.3521 7.22 66.3521 6.588C66.3521 5.948 66.2841 5.36 66.1481 4.824C66.6201 5.008 66.9481 5.272 67.1321 5.616C67.3241 5.952 67.4201 6.34 67.4201 6.78C67.4201 7.212 67.3721 7.716 67.2761 8.292C67.5401 7.388 67.9521 6.628 68.5121 6.012C69.0801 5.388 69.6081 5.076 70.0961 5.076C70.9281 5.076 71.3441 5.644 71.3441 6.78ZM74.7878 12.18C74.3318 12.02 74.0118 11.776 73.8278 11.448C73.6518 11.112 73.5638 10.708 73.5638 10.236C73.5638 9.764 73.6278 9.088 73.7558 8.208C73.8838 7.328 73.9478 6.644 73.9478 6.156C73.9478 5.668 73.9238 5.292 73.8758 5.028C74.0198 5.012 74.1358 5.004 74.2238 5.004C74.5838 5.004 74.8438 5.084 75.0038 5.244C75.1638 5.404 75.2438 5.668 75.2438 6.036C75.2438 6.156 75.1438 6.788 74.9438 7.932C74.7518 9.068 74.6518 10.008 74.6438 10.752C74.6438 11.488 74.6918 11.964 74.7878 12.18ZM74.9678 3.816C74.2958 3.816 73.9598 3.588 73.9598 3.132C73.9598 2.972 74.0198 2.748 74.1398 2.46C74.3158 2.428 74.4678 2.412 74.5958 2.412C75.2678 2.412 75.6038 2.64 75.6038 3.096C75.6038 3.256 75.5438 3.48 75.4238 3.768C75.2478 3.8 75.0958 3.816 74.9678 3.816ZM81.6433 8.064C81.6433 7.28 81.5433 6.72 81.3433 6.384C81.1513 6.04 80.8713 5.868 80.5033 5.868C80.1433 5.868 79.7793 6.048 79.4113 6.408C79.0433 6.76 78.7513 7.2 78.5353 7.728C78.3273 8.248 78.2233 8.792 78.2233 9.36C78.2233 9.92 78.3313 10.408 78.5473 10.824C78.7633 11.232 79.0913 11.436 79.5313 11.436C80.1553 11.436 80.6633 11.068 81.0553 10.332C81.4473 9.596 81.6433 8.84 81.6433 8.064ZM78.1633 7.596C78.4673 6.732 78.8753 6.104 79.3873 5.712C79.9073 5.312 80.4313 5.112 80.9593 5.112C81.4953 5.112 81.9393 5.348 82.2913 5.82C82.6433 6.284 82.8193 6.916 82.8193 7.716C82.8193 8.596 82.6513 9.412 82.3153 10.164C81.9393 10.996 81.3953 11.576 80.6833 11.904C80.2993 12.088 79.8753 12.18 79.4113 12.18C78.7633 12.18 78.1953 11.912 77.7073 11.376C77.2193 10.832 76.9753 10.06 76.9753 9.06C76.9753 8.052 77.1913 7.18 77.6233 6.444C78.0553 5.708 78.6433 5.196 79.3873 4.908C79.5473 4.908 79.6273 4.988 79.6273 5.148C78.8353 5.668 78.3473 6.484 78.1633 7.596Z"/>
</svg>
